<svg viewBox="0 0 1458.0078125 400" xmlns="http://www.w3.org/2000/svg"><g><g><g><g><g><line x1="58" y1="378" x2="53" y2="378" style="visibility: inherit;" fill="rgb(0, 0, 0)" stroke="rgb(204, 204, 204)" stroke-width="1px"></line><line x1="58" y1="330.75" x2="53" y2="330.75" style="visibility: inherit;" fill="rgb(0, 0, 0)" stroke="rgb(204, 204, 204)" stroke-width="1px"></line><line x1="58" y1="283.5" x2="53" y2="283.5" style="visibility: inherit;" fill="rgb(0, 0, 0)" stroke="rgb(204, 204, 204)" stroke-width="1px"></line><line x1="58" y1="236.24999999999997" x2="53" y2="236.24999999999997" style="visibility: inherit;" fill="rgb(0, 0, 0)" stroke="rgb(204, 204, 204)" stroke-width="1px"></line><line x1="58" y1="188.99999999999997" x2="53" y2="188.99999999999997" style="visibility: inherit;" fill="rgb(0, 0, 0)" stroke="rgb(204, 204, 204)" stroke-width="1px"></line><line x1="58" y1="141.75" x2="53" y2="141.75" style="visibility: inherit;" fill="rgb(0, 0, 0)" stroke="rgb(204, 204, 204)" stroke-width="1px"></line><line x1="58" y1="94.5" x2="53" y2="94.5" style="visibility: inherit;" fill="rgb(0, 0, 0)" stroke="rgb(204, 204, 204)" stroke-width="1px"></line><line x1="58" y1="47.25" x2="53" y2="47.25" style="visibility: inherit;" fill="rgb(0, 0, 0)" stroke="rgb(204, 204, 204)" stroke-width="1px"></line><line x1="58" y1="0" x2="53" y2="0" style="visibility: inherit;" fill="rgb(0, 0, 0)" stroke="rgb(204, 204, 204)" stroke-width="1px"></line></g><g transform="translate(48, 0)"><text x="0" y="378" dx="0em" dy="0.3em" style="text-anchor: end; visibility: hidden; font-family: &quot;Helvetica Neue&quot;, sans-serif; font-size: 12px; font-weight: 200;" fill="rgb(50, 49, 63)" stroke="none" stroke-width="1px">-0.1</text><text x="0" y="330.75" dx="0em" dy="0.3em" style="text-anchor: end; visibility: inherit; font-family: &quot;Helvetica Neue&quot;, sans-serif; font-size: 12px; font-weight: 200;" fill="rgb(50, 49, 63)" stroke="none" stroke-width="1px">0</text><text x="0" y="283.5" dx="0em" dy="0.3em" style="text-anchor: end; visibility: inherit; font-family: &quot;Helvetica Neue&quot;, sans-serif; font-size: 12px; font-weight: 200;" fill="rgb(50, 49, 63)" stroke="none" stroke-width="1px">0.1</text><text x="0" y="236.24999999999997" dx="0em" dy="0.3em" style="text-anchor: end; visibility: inherit; font-family: &quot;Helvetica Neue&quot;, sans-serif; font-size: 12px; font-weight: 200;" fill="rgb(50, 49, 63)" stroke="none" stroke-width="1px">0.2</text><text x="0" y="188.99999999999997" dx="0em" dy="0.3em" style="text-anchor: end; visibility: inherit; font-family: &quot;Helvetica Neue&quot;, sans-serif; font-size: 12px; font-weight: 200;" fill="rgb(50, 49, 63)" stroke="none" stroke-width="1px">0.3</text><text x="0" y="141.75" dx="0em" dy="0.3em" style="text-anchor: end; visibility: inherit; font-family: &quot;Helvetica Neue&quot;, sans-serif; font-size: 12px; font-weight: 200;" fill="rgb(50, 49, 63)" stroke="none" stroke-width="1px">0.4</text><text x="0" y="94.5" dx="0em" dy="0.3em" style="text-anchor: end; visibility: inherit; font-family: &quot;Helvetica Neue&quot;, sans-serif; font-size: 12px; font-weight: 200;" fill="rgb(50, 49, 63)" stroke="none" stroke-width="1px">0.5</text><text x="0" y="47.25" dx="0em" dy="0.3em" style="text-anchor: end; visibility: inherit; font-family: &quot;Helvetica Neue&quot;, sans-serif; font-size: 12px; font-weight: 200;" fill="rgb(50, 49, 63)" stroke="none" stroke-width="1px">0.6</text><text x="0" y="0" dx="0em" dy="0.3em" style="text-anchor: end; visibility: hidden; font-family: &quot;Helvetica Neue&quot;, sans-serif; font-size: 12px; font-weight: 200;" fill="rgb(50, 49, 63)" stroke="none" stroke-width="1px">0.7</text></g><line x1="58" y1="0" x2="58" y2="378" fill="rgb(0, 0, 0)" stroke="rgb(204, 204, 204)" stroke-width="1px"></line></g></g><g transform="translate(58, 0)" clip-path="url(#clip_0)"><clipPath id="clip_0"><rect width="1400" height="377"></rect></clipPath><g><g><g><line x1="0" y1="0" x2="0" y2="378" fill="rgb(0, 0, 0)" stroke="rgb(60, 60, 60)" stroke-width="1px" opacity="0.25"></line><line x1="116.66749999999999" y1="0" x2="116.66749999999999" y2="378" fill="rgb(0, 0, 0)" stroke="rgb(60, 60, 60)" stroke-width="1px" opacity="0.25"></line><line x1="233.33499999999998" y1="0" x2="233.33499999999998" y2="378" fill="rgb(0, 0, 0)" stroke="rgb(60, 60, 60)" stroke-width="1px" opacity="0.25"></line><line x1="350.0025" y1="0" x2="350.0025" y2="378" fill="rgb(0, 0, 0)" stroke="rgb(60, 60, 60)" stroke-width="1px" opacity="0.25"></line><line x1="466.66999999999996" y1="0" x2="466.66999999999996" y2="378" fill="rgb(0, 0, 0)" stroke="rgb(60, 60, 60)" stroke-width="1px" opacity="0.25"></line><line x1="583.3375" y1="0" x2="583.3375" y2="378" fill="rgb(0, 0, 0)" stroke="rgb(60, 60, 60)" stroke-width="1px" opacity="0.25"></line><line x1="700.005" y1="0" x2="700.005" y2="378" fill="rgb(0, 0, 0)" stroke="rgb(60, 60, 60)" stroke-width="1px" opacity="0.25"></line><line x1="816.6725" y1="0" x2="816.6725" y2="378" fill="rgb(0, 0, 0)" stroke="rgb(60, 60, 60)" stroke-width="1px" opacity="0.25"></line><line x1="933.3399999999999" y1="0" x2="933.3399999999999" y2="378" fill="rgb(0, 0, 0)" stroke="rgb(60, 60, 60)" stroke-width="1px" opacity="0.25"></line><line x1="1050.0075" y1="0" x2="1050.0075" y2="378" fill="rgb(0, 0, 0)" stroke="rgb(60, 60, 60)" stroke-width="1px" opacity="0.25"></line><line x1="1166.675" y1="0" x2="1166.675" y2="378" fill="rgb(0, 0, 0)" stroke="rgb(60, 60, 60)" stroke-width="1px" opacity="0.25"></line><line x1="1283.3425" y1="0" x2="1283.3425" y2="378" fill="rgb(0, 0, 0)" stroke="rgb(60, 60, 60)" stroke-width="1px" opacity="0.25"></line><line x1="1400.01" y1="0" x2="1400.01" y2="378" fill="rgb(0, 0, 0)" stroke="rgb(60, 60, 60)" stroke-width="1px" opacity="0.25"></line></g><g><line x1="0" y1="378" x2="1400.01" y2="378" fill="rgb(0, 0, 0)" stroke="rgb(60, 60, 60)" stroke-width="1px" opacity="0.25"></line><line x1="0" y1="330.75" x2="1400.01" y2="330.75" fill="rgb(0, 0, 0)" stroke="rgb(60, 60, 60)" stroke-width="1px" opacity="0.25"></line><line x1="0" y1="283.5" x2="1400.01" y2="283.5" fill="rgb(0, 0, 0)" stroke="rgb(60, 60, 60)" stroke-width="1px" opacity="0.25"></line><line x1="0" y1="236.24999999999997" x2="1400.01" y2="236.24999999999997" fill="rgb(0, 0, 0)" stroke="rgb(60, 60, 60)" stroke-width="1px" opacity="0.25"></line><line x1="0" y1="188.99999999999997" x2="1400.01" y2="188.99999999999997" fill="rgb(0, 0, 0)" stroke="rgb(60, 60, 60)" stroke-width="1px" opacity="0.25"></line><line x1="0" y1="141.75" x2="1400.01" y2="141.75" fill="rgb(0, 0, 0)" stroke="rgb(60, 60, 60)" stroke-width="1px" opacity="0.25"></line><line x1="0" y1="94.5" x2="1400.01" y2="94.5" fill="rgb(0, 0, 0)" stroke="rgb(60, 60, 60)" stroke-width="1px" opacity="0.25"></line><line x1="0" y1="47.25" x2="1400.01" y2="47.25" fill="rgb(0, 0, 0)" stroke="rgb(60, 60, 60)" stroke-width="1px" opacity="0.25"></line><line x1="0" y1="0" x2="1400.01" y2="0" fill="rgb(0, 0, 0)" stroke="rgb(60, 60, 60)" stroke-width="1px" opacity="0.25"></line></g></g></g><g><g><line x1="0" y1="330.75" x2="1400.01" y2="330.75" fill="rgb(0, 0, 0)" stroke="rgb(153, 153, 153)" stroke-width="1.5px"></line></g></g><g><g><line x1="116.66749999999999" y1="0" x2="116.66749999999999" y2="378" fill="rgb(0, 0, 0)" stroke="rgb(153, 153, 153)" stroke-width="1.5px"></line></g></g><g><g><g><g><g><path stroke="rgb(0, 119, 187)" stroke-width="2px" d="M116.66749999999999,284.2817110083997L140.001,275.3580834255235L163.3345,269.74829132778683L186.668,266.3004380251978L210.0015,258.1350569590761L233.33499999999998,259.65499085988836L256.6685,245.81863395037016L280.002,252.52726764273092L303.3355,245.3438756941697L326.669,235.46529931770613L350.0025,227.30187476482507L373.336,223.03983432831987L396.66949999999997,232.07954441993195L420.003,220.22924409239582L443.3365,212.0958994954638L466.66999999999996,208.9228723752693L490.0035,199.71804255904462L513.337,202.14618790593912L536.6705000000001,184.48794605615856L560.004,178.9920884494738L583.3375,177.34613662355736L606.671,170.20446896880986L630.0045,185.26423727472087L653.338,171.17339186215307L676.6715,172.41936857280905L700.005,166.4861926601993L723.3385000000001,152.1204416269461L746.672,150.79097293329428L770.0055000000001,141.5345312007869L793.3389999999999,128.41709673771913L816.6725,136.33042450394336L840.006,123.20692032468861L863.3395,127.86731937056723L886.673,127.92761866228142L910.0065000000001,106.6196579513155L933.3399999999999,117.49286379585368L956.6735,108.479857873723L980.007,108.77229810673316L1003.3405,103.76289382992462L1026.674,95.69484814737501L1050.0075,92.17146151283737L1073.3410000000001,93.74748751810444L1096.6745,83.5338733990285L1120.008,84.34725920294534L1143.3415,81.2319755781993L1166.675,76.73406288911133L1190.0085,74.17180004530542L1213.342,67.23749843971581L1236.6755,63.54328622583307L1260.009,56.780158573900735" style="fill: none;" fill="none"></path></g><g><path stroke="rgb(255, 112, 67)" stroke-width="2px" d="M116.66749999999999,294.70450450479984L140.001,298.7944972150742L163.3345,280.490568597462L186.668,269.18285110645684L210.0015,274.5193450942483L233.33499999999998,250.48330056363915L256.6685,249.69769152732314L280.002,236.19673198740037L303.3355,230.67666975539262L326.669,222.52282812086506L350.0025,222.59827836851275L373.336,213.57786301335693L396.66949999999997,211.70111522203885L420.003,205.24332159316467L443.3365,197.2932645155934L466.66999999999996,188.73117744664236L490.0035,176.09172429899584L513.337,178.30417094226402L536.6705000000001,184.09571423033955L560.004,161.58267098267092L583.3375,170.80812746505603L606.671,161.8796176661359L630.0045,159.29566225587163L653.338,159.22287576299945L676.6715,155.23609087617737L700.005,147.3398452511456L723.3385000000001,144.56798049015327L746.672,143.37965946231307L770.0055000000001,137.03752152963594L793.3389999999999,144.28248560092658L816.6725,132.49199181690994L840.006,122.9233933652082L863.3395,134.32351657331583L886.673,116.36594177629092L910.0065000000001,118.04627371440381L933.3399999999999,112.18606948000678L956.6735,106.14302093267372L980.007,112.71558427270878L1003.3405,102.25742266182817L1026.674,92.19001998310875L1050.0075,94.11192335716225L1073.3410000000001,87.56966709189874L1096.6745,83.9412950634129L1120.008,93.44878531864686L1143.3415,83.84500944557186L1166.675,71.03055257882994L1190.0085,73.2136103131781L1213.342,72.85770454866616L1236.6755,78.94041238022817L1260.009,60.450853247773864" style="fill: none;" fill="none"></path></g></g></g></g><g opacity="0.2"><g><g><g><path stroke="rgb(0, 119, 187)" stroke-width="2px" d="M116.66749999999999,284.2817110083997L140.001,273.8589139916003L163.3345,268.64751548320055L186.668,265.60753800719976L210.0015,256.4875914976001L233.33499999999998,259.96185951679945L256.6685,243.02481700479984L280.002,253.88189048320055L303.3355,243.89338400959969L326.669,233.47058699280024L350.0025,225.65349099040031L373.336,222.1792300119996L396.66949999999997,233.90487049520016L420.003,217.8363949880004L443.3365,210.45358952879906L466.66999999999996,208.2821649760008L490.0035,197.859375L513.337,202.63648648560047L536.6705000000001,180.92233952879906L560.004,177.88234797120094L583.3375,177.0137809664011L606.671,168.76240146160126L630.0045,188.30515202879906L653.338,168.328125L676.6715,172.6709600239992L700.005,165.2881475239992L723.3385000000001,149.2196649760008L746.672,150.5225225239992L770.0055000000001,139.66544200479984L793.3389999999999,125.76838400959969L816.6725,137.92830799520016L840.006,120.55698198080063L863.3395,128.80836148560047L886.673,127.93979448080063L910.0065000000001,102.31708896160126L933.3399999999999,119.68841497600079L956.6735,106.65992398560047L980.007,108.83134853839874L1003.3405,102.75137950479984L1026.674,94.06572353839874L1050.0075,91.46000844240189L1073.3410000000001,94.06572353839874L1096.6745,81.47150900959969L1120.008,84.5115005671978L1143.3415,80.60292792320251L1166.675,75.82583051919937L1190.0085,73.65442004799843L1213.342,65.83730292320251L1236.6755,62.79733952879906L1260.009,55.41452702879906" style="fill: none;" fill="none"></path></g><g><path stroke="rgb(255, 112, 67)" stroke-width="2px" d="M116.66749999999999,294.70450450479984L140.001,299.4816159904003L163.3345,276.8988985083997L186.668,266.91038851439953L210.0015,275.59604800119996L233.33499999999998,245.63051801919937L256.6685,249.5390625L280.002,233.47058699280024L303.3355,229.5620425119996L326.669,220.87637950479984L350.0025,222.61351351439953L373.336,211.75643299520016L396.66949999999997,211.3221565335989L420.003,203.9393440335989L443.3365,195.68796452879906L466.66999999999996,187.00229448080063L490.0035,173.53952702879906L513.337,178.7509149760008L536.6705000000001,185.26516047120094L560.004,157.03676801919937L583.3375,172.6709600239992L606.671,160.07674549520016L630.0045,158.77390202879906L653.338,159.20817849040031L676.6715,154.43106700479984L700.005,145.74541103839874L723.3385000000001,144.00827702879906L746.672,143.1397100239992L770.0055000000001,135.7568975239992L793.3389999999999,145.74541103839874L816.6725,130.1112190335989L840.006,120.99127252399921L863.3395,136.62546452879906L886.673,112.73989301919937L910.0065000000001,118.38557150959969L933.3399999999999,111.00275900959969L956.6735,104.92278997600079L980.007,114.04273648560047L1003.3405,100.14567849040031L1026.674,90.15717905759811L1050.0075,94.5L1073.3410000000001,86.24863457679749L1096.6745,83.20864301919937L1120.008,95.36856700479984L1143.3415,81.90578547120094L1166.675,68.44301801919937L1190.0085,73.65442004799843L1213.342,72.78583896160126L1236.6755,80.16865146160126L1260.009,56.717384576797485" style="fill: none;" fill="none"></path></g></g></g></g></g></g><g transform="translate(58, 378)" clip-path="url(#clip_1)"><clipPath id="clip_1"><rect width="1400" height="21"></rect></clipPath><g><g><line x1="0" y1="0" x2="0" y2="5" style="visibility: inherit;" fill="rgb(0, 0, 0)" stroke="rgb(204, 204, 204)" stroke-width="1px"></line><line x1="116.66749999999999" y1="0" x2="116.66749999999999" y2="5" style="visibility: inherit;" fill="rgb(0, 0, 0)" stroke="rgb(204, 204, 204)" stroke-width="1px"></line><line x1="233.33499999999998" y1="0" x2="233.33499999999998" y2="5" style="visibility: inherit;" fill="rgb(0, 0, 0)" stroke="rgb(204, 204, 204)" stroke-width="1px"></line><line x1="350.0025" y1="0" x2="350.0025" y2="5" style="visibility: inherit;" fill="rgb(0, 0, 0)" stroke="rgb(204, 204, 204)" stroke-width="1px"></line><line x1="466.66999999999996" y1="0" x2="466.66999999999996" y2="5" style="visibility: inherit;" fill="rgb(0, 0, 0)" stroke="rgb(204, 204, 204)" stroke-width="1px"></line><line x1="583.3375" y1="0" x2="583.3375" y2="5" style="visibility: inherit;" fill="rgb(0, 0, 0)" stroke="rgb(204, 204, 204)" stroke-width="1px"></line><line x1="700.005" y1="0" x2="700.005" y2="5" style="visibility: inherit;" fill="rgb(0, 0, 0)" stroke="rgb(204, 204, 204)" stroke-width="1px"></line><line x1="816.6725" y1="0" x2="816.6725" y2="5" style="visibility: inherit;" fill="rgb(0, 0, 0)" stroke="rgb(204, 204, 204)" stroke-width="1px"></line><line x1="933.3399999999999" y1="0" x2="933.3399999999999" y2="5" style="visibility: inherit;" fill="rgb(0, 0, 0)" stroke="rgb(204, 204, 204)" stroke-width="1px"></line><line x1="1050.0075" y1="0" x2="1050.0075" y2="5" style="visibility: inherit;" fill="rgb(0, 0, 0)" stroke="rgb(204, 204, 204)" stroke-width="1px"></line><line x1="1166.675" y1="0" x2="1166.675" y2="5" style="visibility: inherit;" fill="rgb(0, 0, 0)" stroke="rgb(204, 204, 204)" stroke-width="1px"></line><line x1="1283.3425" y1="0" x2="1283.3425" y2="5" style="visibility: inherit;" fill="rgb(0, 0, 0)" stroke="rgb(204, 204, 204)" stroke-width="1px"></line><line x1="1400.01" y1="0" x2="1400.01" y2="5" style="visibility: inherit;" fill="rgb(0, 0, 0)" stroke="rgb(204, 204, 204)" stroke-width="1px"></line></g><g transform="translate(0, 8)"><text x="0" y="0" dx="0em" dy="0.95em" style="text-anchor: middle; visibility: hidden; font-family: &quot;Helvetica Neue&quot;, sans-serif; font-size: 12px; font-weight: 200;" fill="rgb(50, 49, 63)" stroke="none" stroke-width="1px">-5</text><text x="116.66749999999999" y="0" dx="0em" dy="0.95em" style="text-anchor: middle; visibility: inherit; font-family: &quot;Helvetica Neue&quot;, sans-serif; font-size: 12px; font-weight: 200;" fill="rgb(50, 49, 63)" stroke="none" stroke-width="1px">0</text><text x="233.33499999999998" y="0" dx="0em" dy="0.95em" style="text-anchor: middle; visibility: inherit; font-family: &quot;Helvetica Neue&quot;, sans-serif; font-size: 12px; font-weight: 200;" fill="rgb(50, 49, 63)" stroke="none" stroke-width="1px">5</text><text x="350.0025" y="0" dx="0em" dy="0.95em" style="text-anchor: middle; visibility: inherit; font-family: &quot;Helvetica Neue&quot;, sans-serif; font-size: 12px; font-weight: 200;" fill="rgb(50, 49, 63)" stroke="none" stroke-width="1px">10</text><text x="466.66999999999996" y="0" dx="0em" dy="0.95em" style="text-anchor: middle; visibility: inherit; font-family: &quot;Helvetica Neue&quot;, sans-serif; font-size: 12px; font-weight: 200;" fill="rgb(50, 49, 63)" stroke="none" stroke-width="1px">15</text><text x="583.3375" y="0" dx="0em" dy="0.95em" style="text-anchor: middle; visibility: inherit; font-family: &quot;Helvetica Neue&quot;, sans-serif; font-size: 12px; font-weight: 200;" fill="rgb(50, 49, 63)" stroke="none" stroke-width="1px">20</text><text x="700.005" y="0" dx="0em" dy="0.95em" style="text-anchor: middle; visibility: inherit; font-family: &quot;Helvetica Neue&quot;, sans-serif; font-size: 12px; font-weight: 200;" fill="rgb(50, 49, 63)" stroke="none" stroke-width="1px">25</text><text x="816.6725" y="0" dx="0em" dy="0.95em" style="text-anchor: middle; visibility: inherit; font-family: &quot;Helvetica Neue&quot;, sans-serif; font-size: 12px; font-weight: 200;" fill="rgb(50, 49, 63)" stroke="none" stroke-width="1px">30</text><text x="933.3399999999999" y="0" dx="0em" dy="0.95em" style="text-anchor: middle; visibility: inherit; font-family: &quot;Helvetica Neue&quot;, sans-serif; font-size: 12px; font-weight: 200;" fill="rgb(50, 49, 63)" stroke="none" stroke-width="1px">35</text><text x="1050.0075" y="0" dx="0em" dy="0.95em" style="text-anchor: middle; visibility: inherit; font-family: &quot;Helvetica Neue&quot;, sans-serif; font-size: 12px; font-weight: 200;" fill="rgb(50, 49, 63)" stroke="none" stroke-width="1px">40</text><text x="1166.675" y="0" dx="0em" dy="0.95em" style="text-anchor: middle; visibility: inherit; font-family: &quot;Helvetica Neue&quot;, sans-serif; font-size: 12px; font-weight: 200;" fill="rgb(50, 49, 63)" stroke="none" stroke-width="1px">45</text><text x="1283.3425" y="0" dx="0em" dy="0.95em" style="text-anchor: middle; visibility: inherit; font-family: &quot;Helvetica Neue&quot;, sans-serif; font-size: 12px; font-weight: 200;" fill="rgb(50, 49, 63)" stroke="none" stroke-width="1px">50</text><text x="1400.01" y="0" dx="0em" dy="0.95em" style="text-anchor: middle; visibility: hidden; font-family: &quot;Helvetica Neue&quot;, sans-serif; font-size: 12px; font-weight: 200;" fill="rgb(50, 49, 63)" stroke="none" stroke-width="1px">55</text></g><line x1="0" y1="0" x2="1400.01" y2="0" fill="rgb(0, 0, 0)" stroke="rgb(204, 204, 204)" stroke-width="1px"></line></g></g></g></g></svg>