<svg viewBox="0 0 1458.0078125 400" xmlns="http://www.w3.org/2000/svg"><g><g><g><g><g><line x1="34" y1="378" x2="29" y2="378" style="visibility: inherit;" fill="rgb(0, 0, 0)" stroke="rgb(204, 204, 204)" stroke-width="1px"></line><line x1="34" y1="340.2" x2="29" y2="340.2" style="visibility: inherit;" fill="rgb(0, 0, 0)" stroke="rgb(204, 204, 204)" stroke-width="1px"></line><line x1="34" y1="302.4" x2="29" y2="302.4" style="visibility: inherit;" fill="rgb(0, 0, 0)" stroke="rgb(204, 204, 204)" stroke-width="1px"></line><line x1="34" y1="264.6" x2="29" y2="264.6" style="visibility: inherit;" fill="rgb(0, 0, 0)" stroke="rgb(204, 204, 204)" stroke-width="1px"></line><line x1="34" y1="226.79999999999998" x2="29" y2="226.79999999999998" style="visibility: inherit;" fill="rgb(0, 0, 0)" stroke="rgb(204, 204, 204)" stroke-width="1px"></line><line x1="34" y1="189" x2="29" y2="189" style="visibility: inherit;" fill="rgb(0, 0, 0)" stroke="rgb(204, 204, 204)" stroke-width="1px"></line><line x1="34" y1="151.20000000000002" x2="29" y2="151.20000000000002" style="visibility: inherit;" fill="rgb(0, 0, 0)" stroke="rgb(204, 204, 204)" stroke-width="1px"></line><line x1="34" y1="113.40000000000003" x2="29" y2="113.40000000000003" style="visibility: inherit;" fill="rgb(0, 0, 0)" stroke="rgb(204, 204, 204)" stroke-width="1px"></line><line x1="34" y1="75.59999999999997" x2="29" y2="75.59999999999997" style="visibility: inherit;" fill="rgb(0, 0, 0)" stroke="rgb(204, 204, 204)" stroke-width="1px"></line><line x1="34" y1="37.80000000000001" x2="29" y2="37.80000000000001" style="visibility: inherit;" fill="rgb(0, 0, 0)" stroke="rgb(204, 204, 204)" stroke-width="1px"></line><line x1="34" y1="0" x2="29" y2="0" style="visibility: inherit;" fill="rgb(0, 0, 0)" stroke="rgb(204, 204, 204)" stroke-width="1px"></line></g><g transform="translate(24, 0)"><text x="0" y="378" dx="0em" dy="0.3em" style="text-anchor: end; visibility: hidden; font-family: &quot;Helvetica Neue&quot;, sans-serif; font-size: 12px; font-weight: 200;" fill="rgb(50, 49, 63)" stroke="none" stroke-width="1px">-1</text><text x="0" y="340.2" dx="0em" dy="0.3em" style="text-anchor: end; visibility: inherit; font-family: &quot;Helvetica Neue&quot;, sans-serif; font-size: 12px; font-weight: 200;" fill="rgb(50, 49, 63)" stroke="none" stroke-width="1px">0</text><text x="0" y="302.4" dx="0em" dy="0.3em" style="text-anchor: end; visibility: inherit; font-family: &quot;Helvetica Neue&quot;, sans-serif; font-size: 12px; font-weight: 200;" fill="rgb(50, 49, 63)" stroke="none" stroke-width="1px">1</text><text x="0" y="264.6" dx="0em" dy="0.3em" style="text-anchor: end; visibility: inherit; font-family: &quot;Helvetica Neue&quot;, sans-serif; font-size: 12px; font-weight: 200;" fill="rgb(50, 49, 63)" stroke="none" stroke-width="1px">2</text><text x="0" y="226.79999999999998" dx="0em" dy="0.3em" style="text-anchor: end; visibility: inherit; font-family: &quot;Helvetica Neue&quot;, sans-serif; font-size: 12px; font-weight: 200;" fill="rgb(50, 49, 63)" stroke="none" stroke-width="1px">3</text><text x="0" y="189" dx="0em" dy="0.3em" style="text-anchor: end; visibility: inherit; font-family: &quot;Helvetica Neue&quot;, sans-serif; font-size: 12px; font-weight: 200;" fill="rgb(50, 49, 63)" stroke="none" stroke-width="1px">4</text><text x="0" y="151.20000000000002" dx="0em" dy="0.3em" style="text-anchor: end; visibility: inherit; font-family: &quot;Helvetica Neue&quot;, sans-serif; font-size: 12px; font-weight: 200;" fill="rgb(50, 49, 63)" stroke="none" stroke-width="1px">5</text><text x="0" y="113.40000000000003" dx="0em" dy="0.3em" style="text-anchor: end; visibility: inherit; font-family: &quot;Helvetica Neue&quot;, sans-serif; font-size: 12px; font-weight: 200;" fill="rgb(50, 49, 63)" stroke="none" stroke-width="1px">6</text><text x="0" y="75.59999999999997" dx="0em" dy="0.3em" style="text-anchor: end; visibility: inherit; font-family: &quot;Helvetica Neue&quot;, sans-serif; font-size: 12px; font-weight: 200;" fill="rgb(50, 49, 63)" stroke="none" stroke-width="1px">7</text><text x="0" y="37.80000000000001" dx="0em" dy="0.3em" style="text-anchor: end; visibility: inherit; font-family: &quot;Helvetica Neue&quot;, sans-serif; font-size: 12px; font-weight: 200;" fill="rgb(50, 49, 63)" stroke="none" stroke-width="1px">8</text><text x="0" y="0" dx="0em" dy="0.3em" style="text-anchor: end; visibility: hidden; font-family: &quot;Helvetica Neue&quot;, sans-serif; font-size: 12px; font-weight: 200;" fill="rgb(50, 49, 63)" stroke="none" stroke-width="1px">9</text></g><line x1="34" y1="0" x2="34" y2="378" fill="rgb(0, 0, 0)" stroke="rgb(204, 204, 204)" stroke-width="1px"></line></g></g><g transform="translate(34, 0)" clip-path="url(#clip_0)"><clipPath id="clip_0"><rect width="1424" height="377"></rect></clipPath><g><g><g><line x1="0" y1="0" x2="0" y2="378" fill="rgb(0, 0, 0)" stroke="rgb(60, 60, 60)" stroke-width="1px" opacity="0.25"></line><line x1="118.66749999999999" y1="0" x2="118.66749999999999" y2="378" fill="rgb(0, 0, 0)" stroke="rgb(60, 60, 60)" stroke-width="1px" opacity="0.25"></line><line x1="237.33499999999998" y1="0" x2="237.33499999999998" y2="378" fill="rgb(0, 0, 0)" stroke="rgb(60, 60, 60)" stroke-width="1px" opacity="0.25"></line><line x1="356.0025" y1="0" x2="356.0025" y2="378" fill="rgb(0, 0, 0)" stroke="rgb(60, 60, 60)" stroke-width="1px" opacity="0.25"></line><line x1="474.66999999999996" y1="0" x2="474.66999999999996" y2="378" fill="rgb(0, 0, 0)" stroke="rgb(60, 60, 60)" stroke-width="1px" opacity="0.25"></line><line x1="593.3375" y1="0" x2="593.3375" y2="378" fill="rgb(0, 0, 0)" stroke="rgb(60, 60, 60)" stroke-width="1px" opacity="0.25"></line><line x1="712.005" y1="0" x2="712.005" y2="378" fill="rgb(0, 0, 0)" stroke="rgb(60, 60, 60)" stroke-width="1px" opacity="0.25"></line><line x1="830.6725" y1="0" x2="830.6725" y2="378" fill="rgb(0, 0, 0)" stroke="rgb(60, 60, 60)" stroke-width="1px" opacity="0.25"></line><line x1="949.3399999999999" y1="0" x2="949.3399999999999" y2="378" fill="rgb(0, 0, 0)" stroke="rgb(60, 60, 60)" stroke-width="1px" opacity="0.25"></line><line x1="1068.0075" y1="0" x2="1068.0075" y2="378" fill="rgb(0, 0, 0)" stroke="rgb(60, 60, 60)" stroke-width="1px" opacity="0.25"></line><line x1="1186.675" y1="0" x2="1186.675" y2="378" fill="rgb(0, 0, 0)" stroke="rgb(60, 60, 60)" stroke-width="1px" opacity="0.25"></line><line x1="1305.3425" y1="0" x2="1305.3425" y2="378" fill="rgb(0, 0, 0)" stroke="rgb(60, 60, 60)" stroke-width="1px" opacity="0.25"></line><line x1="1424.01" y1="0" x2="1424.01" y2="378" fill="rgb(0, 0, 0)" stroke="rgb(60, 60, 60)" stroke-width="1px" opacity="0.25"></line></g><g><line x1="0" y1="378" x2="1424.01" y2="378" fill="rgb(0, 0, 0)" stroke="rgb(60, 60, 60)" stroke-width="1px" opacity="0.25"></line><line x1="0" y1="340.2" x2="1424.01" y2="340.2" fill="rgb(0, 0, 0)" stroke="rgb(60, 60, 60)" stroke-width="1px" opacity="0.25"></line><line x1="0" y1="302.4" x2="1424.01" y2="302.4" fill="rgb(0, 0, 0)" stroke="rgb(60, 60, 60)" stroke-width="1px" opacity="0.25"></line><line x1="0" y1="264.6" x2="1424.01" y2="264.6" fill="rgb(0, 0, 0)" stroke="rgb(60, 60, 60)" stroke-width="1px" opacity="0.25"></line><line x1="0" y1="226.79999999999998" x2="1424.01" y2="226.79999999999998" fill="rgb(0, 0, 0)" stroke="rgb(60, 60, 60)" stroke-width="1px" opacity="0.25"></line><line x1="0" y1="189" x2="1424.01" y2="189" fill="rgb(0, 0, 0)" stroke="rgb(60, 60, 60)" stroke-width="1px" opacity="0.25"></line><line x1="0" y1="151.20000000000002" x2="1424.01" y2="151.20000000000002" fill="rgb(0, 0, 0)" stroke="rgb(60, 60, 60)" stroke-width="1px" opacity="0.25"></line><line x1="0" y1="113.40000000000003" x2="1424.01" y2="113.40000000000003" fill="rgb(0, 0, 0)" stroke="rgb(60, 60, 60)" stroke-width="1px" opacity="0.25"></line><line x1="0" y1="75.59999999999997" x2="1424.01" y2="75.59999999999997" fill="rgb(0, 0, 0)" stroke="rgb(60, 60, 60)" stroke-width="1px" opacity="0.25"></line><line x1="0" y1="37.80000000000001" x2="1424.01" y2="37.80000000000001" fill="rgb(0, 0, 0)" stroke="rgb(60, 60, 60)" stroke-width="1px" opacity="0.25"></line><line x1="0" y1="0" x2="1424.01" y2="0" fill="rgb(0, 0, 0)" stroke="rgb(60, 60, 60)" stroke-width="1px" opacity="0.25"></line></g></g></g><g><g><line x1="0" y1="340.2" x2="1424.01" y2="340.2" fill="rgb(0, 0, 0)" stroke="rgb(153, 153, 153)" stroke-width="1.5px"></line></g></g><g><g><line x1="118.66749999999999" y1="0" x2="118.66749999999999" y2="378" fill="rgb(0, 0, 0)" stroke="rgb(153, 153, 153)" stroke-width="1.5px"></line></g></g><g><g><g><g><g><path stroke="rgb(0, 119, 187)" stroke-width="2px" d="M118.66749999999999,138.3606113433838L142.401,143.35660775654935L166.1345,139.7551672782978L189.868,139.54884439045378L213.6015,160.26116268466012L237.33499999999998,166.66443965159755L261.0685,176.3912453403929L284.802,179.93638752148703L308.5355,188.94753253654616L332.269,196.58785799372419L356.0025,207.38410456935097L379.736,210.43975819468386L403.4695,213.72353146438812L427.203,218.42712147456086L450.93649999999997,221.6108600942573L474.66999999999996,224.2335858270131L498.40349999999995,228.455027971917L522.137,229.67685007037582L545.8705,233.39893737432314L569.604,236.2588148596236L593.3375,238.3750523197566L617.071,239.12583119267322L640.8045,238.37883026231734L664.538,240.28481301837104L688.2715,242.17477478642715L712.005,244.05259733562858L735.7385,246.11095341171176L759.472,246.04661488935412L783.2055,247.79842308607945L806.939,249.49300991366644L830.6725,249.2034532320243L854.406,250.72505925369785L878.1395,251.09313160684292L901.8729999999999,250.2049122659555L925.6065,255.11298892340025L949.3399999999999,253.4355117991654L973.0735,255.31680491048246L996.8069999999999,255.86718743089364L1020.5405,255.50910171873682L1044.274,258.31078445678975L1068.0075,259.72363457926804L1091.741,258.4508246834137L1115.4745,261.20101130682326L1139.208,260.73838346155804L1162.9415,261.70952835013065L1186.675,261.73961068713834L1210.4085,263.50000836436016L1234.142,264.3528166395875L1257.8754999999999,263.72418192958156L1281.609,265.3611420121067" style="fill: none;" fill="none"></path></g><g><path stroke="rgb(255, 112, 67)" stroke-width="2px" d="M118.66749999999999,66.50304479598998L142.401,63.92297209582915L166.1345,99.26747219039675L189.868,137.5250473932921L213.6015,157.6119899770832L237.33499999999998,181.59608900774614L261.0685,190.8851414458776L284.802,198.64995700864796L308.5355,204.88294321915114L332.269,207.39413926043127L356.0025,210.4926940153051L379.736,214.42711504040773L403.4695,214.88986867826827L427.203,216.12724810581338L450.93649999999997,219.24749914784857L474.66999999999996,219.68082351528602L498.40349999999995,220.9527441830877L522.137,224.12063043804199L545.8705,221.72062387562718L569.604,224.8372507302948L593.3375,225.5188979450772L617.071,226.29275116702885L640.8045,227.0738245178382L664.538,226.83278324714624L688.2715,229.0133359332989L712.005,230.08814827370827L735.7385,231.18681504706794L759.472,230.92525751091523L783.2055,232.00819316112575L806.939,231.67090064540508L830.6725,232.8323280442679L854.406,234.8051062426626L878.1395,234.02695393946556L901.8729999999999,237.49698754527748L925.6065,235.9747297871232L949.3399999999999,237.62323296727382L973.0735,238.9081153638438L996.8069999999999,239.5718787284158L1020.5405,239.2592795417791L1044.274,243.21775089417125L1068.0075,241.4551893981456L1091.741,242.6500974597576L1115.4745,244.38091836908887L1139.208,243.29061604198836L1162.9415,244.9542067714212L1186.675,246.83468405083119L1210.4085,246.87370435279064L1234.142,247.18712232760672L1257.8754999999999,246.245436865369L1281.609,249.02282683515446" style="fill: none;" fill="none"></path></g></g></g></g><g opacity="0.2"><g><g><g><path stroke="rgb(0, 119, 187)" stroke-width="2px" d="M118.66749999999999,138.3606113433838L142.401,144.1959351539612L166.1345,139.0484782218933L189.868,139.5073805809021L213.6015,164.4401261329651L237.33499999999998,167.95723600387575L261.0685,178.35526771545412L284.802,180.65223083496093L308.5355,190.767089509964L332.269,198.1306158542633L356.0025,209.564115858078L379.736,211.05676517486572L403.4695,214.38660106658935L427.203,219.37688484191895L450.93649999999997,222.25373039245605L474.66999999999996,224.76317467689515L498.40349999999995,229.3074345588684L522.137,229.92356414794924L545.8705,234.1505126953125L569.604,236.8362901210785L593.3375,238.80236949920655L617.071,239.27743077278137L640.8045,238.22799353599547L664.538,240.66967492103575L688.2715,242.55640168190004L712.005,244.43177304267883L735.7385,246.52658300399779L759.472,246.03362345695496L783.2055,248.1521535873413L806.939,249.8351861000061L830.6725,249.14498505592346L854.406,251.03230662345885L878.1395,251.16745390892027L901.8729999999999,250.02556028366087L925.6065,256.10404286384585L949.3399999999999,253.09679045677183L973.0735,255.69668140411375L996.8069999999999,255.9783223628998L1020.5405,255.4367959499359L1044.274,258.8765088558197L1068.0075,260.00892162323L1091.741,258.19381499290466L1115.4745,261.7563374519348L1139.208,260.64496822357177L1162.9415,261.9056249141693L1186.675,261.74568500518797L1210.4085,263.855473279953L1234.142,264.5250183105469L1257.8754999999999,263.5972460746765L1281.609,265.69168202877046" style="fill: none;" fill="none"></path></g><g><path stroke="rgb(255, 112, 67)" stroke-width="2px" d="M118.66749999999999,66.50304479598998L142.401,63.48951988220216L166.1345,106.20291137695312L189.868,145.2135051727295L213.6015,161.6647762298584L237.33499999999998,186.43838396072388L261.0685,192.76077332496644L284.802,200.21784653663636L308.5355,206.1415261745453L332.269,207.90120763778688L356.0025,211.11836371421813L379.736,215.2215654373169L403.4695,214.98330931663511L427.203,216.3771035671234L450.93649999999997,219.8775498390198L474.66999999999996,219.76832170486452L498.40349999999995,221.20957431793212L522.137,224.7602997779846L545.8705,221.23600716590883L569.604,225.46656961441042L593.3375,225.65653824806213L617.071,226.44900999069213L640.8045,227.23154125213622L664.538,226.78411145210268L688.2715,229.4536398410797L712.005,230.30517768859863L735.7385,231.40866122245788L759.472,230.87244300842283L783.2055,232.22686285972597L806.939,231.6027935028076L830.6725,233.06684703826906L854.406,235.2034556865692L878.1395,233.86982703208923L901.8729999999999,238.19766740798948L925.6065,235.66735081672667L949.3399999999999,237.9561038017273L973.0735,239.1675627708435L996.8069999999999,239.70590786933897L1020.5405,239.1961585521698L1044.274,244.01705760955812L1068.0075,241.0992875576019L1091.741,242.8913769721985L1115.4745,244.73041105270386L1139.208,243.07045884132387L1162.9415,245.29012413024904L1186.675,247.21439580917357L1210.4085,246.88158345222473L1234.142,247.25040864944458L1257.8754999999999,246.0552888393402L1281.609,249.58364596366883" style="fill: none;" fill="none"></path></g></g></g></g></g></g><g transform="translate(34, 378)" clip-path="url(#clip_1)"><clipPath id="clip_1"><rect width="1424" height="21"></rect></clipPath><g><g><line x1="0" y1="0" x2="0" y2="5" style="visibility: inherit;" fill="rgb(0, 0, 0)" stroke="rgb(204, 204, 204)" stroke-width="1px"></line><line x1="118.66749999999999" y1="0" x2="118.66749999999999" y2="5" style="visibility: inherit;" fill="rgb(0, 0, 0)" stroke="rgb(204, 204, 204)" stroke-width="1px"></line><line x1="237.33499999999998" y1="0" x2="237.33499999999998" y2="5" style="visibility: inherit;" fill="rgb(0, 0, 0)" stroke="rgb(204, 204, 204)" stroke-width="1px"></line><line x1="356.0025" y1="0" x2="356.0025" y2="5" style="visibility: inherit;" fill="rgb(0, 0, 0)" stroke="rgb(204, 204, 204)" stroke-width="1px"></line><line x1="474.66999999999996" y1="0" x2="474.66999999999996" y2="5" style="visibility: inherit;" fill="rgb(0, 0, 0)" stroke="rgb(204, 204, 204)" stroke-width="1px"></line><line x1="593.3375" y1="0" x2="593.3375" y2="5" style="visibility: inherit;" fill="rgb(0, 0, 0)" stroke="rgb(204, 204, 204)" stroke-width="1px"></line><line x1="712.005" y1="0" x2="712.005" y2="5" style="visibility: inherit;" fill="rgb(0, 0, 0)" stroke="rgb(204, 204, 204)" stroke-width="1px"></line><line x1="830.6725" y1="0" x2="830.6725" y2="5" style="visibility: inherit;" fill="rgb(0, 0, 0)" stroke="rgb(204, 204, 204)" stroke-width="1px"></line><line x1="949.3399999999999" y1="0" x2="949.3399999999999" y2="5" style="visibility: inherit;" fill="rgb(0, 0, 0)" stroke="rgb(204, 204, 204)" stroke-width="1px"></line><line x1="1068.0075" y1="0" x2="1068.0075" y2="5" style="visibility: inherit;" fill="rgb(0, 0, 0)" stroke="rgb(204, 204, 204)" stroke-width="1px"></line><line x1="1186.675" y1="0" x2="1186.675" y2="5" style="visibility: inherit;" fill="rgb(0, 0, 0)" stroke="rgb(204, 204, 204)" stroke-width="1px"></line><line x1="1305.3425" y1="0" x2="1305.3425" y2="5" style="visibility: inherit;" fill="rgb(0, 0, 0)" stroke="rgb(204, 204, 204)" stroke-width="1px"></line><line x1="1424.01" y1="0" x2="1424.01" y2="5" style="visibility: inherit;" fill="rgb(0, 0, 0)" stroke="rgb(204, 204, 204)" stroke-width="1px"></line></g><g transform="translate(0, 8)"><text x="0" y="0" dx="0em" dy="0.95em" style="text-anchor: middle; visibility: hidden; font-family: &quot;Helvetica Neue&quot;, sans-serif; font-size: 12px; font-weight: 200;" fill="rgb(50, 49, 63)" stroke="none" stroke-width="1px">-5</text><text x="118.66749999999999" y="0" dx="0em" dy="0.95em" style="text-anchor: middle; visibility: inherit; font-family: &quot;Helvetica Neue&quot;, sans-serif; font-size: 12px; font-weight: 200;" fill="rgb(50, 49, 63)" stroke="none" stroke-width="1px">0</text><text x="237.33499999999998" y="0" dx="0em" dy="0.95em" style="text-anchor: middle; visibility: inherit; font-family: &quot;Helvetica Neue&quot;, sans-serif; font-size: 12px; font-weight: 200;" fill="rgb(50, 49, 63)" stroke="none" stroke-width="1px">5</text><text x="356.0025" y="0" dx="0em" dy="0.95em" style="text-anchor: middle; visibility: inherit; font-family: &quot;Helvetica Neue&quot;, sans-serif; font-size: 12px; font-weight: 200;" fill="rgb(50, 49, 63)" stroke="none" stroke-width="1px">10</text><text x="474.66999999999996" y="0" dx="0em" dy="0.95em" style="text-anchor: middle; visibility: inherit; font-family: &quot;Helvetica Neue&quot;, sans-serif; font-size: 12px; font-weight: 200;" fill="rgb(50, 49, 63)" stroke="none" stroke-width="1px">15</text><text x="593.3375" y="0" dx="0em" dy="0.95em" style="text-anchor: middle; visibility: inherit; font-family: &quot;Helvetica Neue&quot;, sans-serif; font-size: 12px; font-weight: 200;" fill="rgb(50, 49, 63)" stroke="none" stroke-width="1px">20</text><text x="712.005" y="0" dx="0em" dy="0.95em" style="text-anchor: middle; visibility: inherit; font-family: &quot;Helvetica Neue&quot;, sans-serif; font-size: 12px; font-weight: 200;" fill="rgb(50, 49, 63)" stroke="none" stroke-width="1px">25</text><text x="830.6725" y="0" dx="0em" dy="0.95em" style="text-anchor: middle; visibility: inherit; font-family: &quot;Helvetica Neue&quot;, sans-serif; font-size: 12px; font-weight: 200;" fill="rgb(50, 49, 63)" stroke="none" stroke-width="1px">30</text><text x="949.3399999999999" y="0" dx="0em" dy="0.95em" style="text-anchor: middle; visibility: inherit; font-family: &quot;Helvetica Neue&quot;, sans-serif; font-size: 12px; font-weight: 200;" fill="rgb(50, 49, 63)" stroke="none" stroke-width="1px">35</text><text x="1068.0075" y="0" dx="0em" dy="0.95em" style="text-anchor: middle; visibility: inherit; font-family: &quot;Helvetica Neue&quot;, sans-serif; font-size: 12px; font-weight: 200;" fill="rgb(50, 49, 63)" stroke="none" stroke-width="1px">40</text><text x="1186.675" y="0" dx="0em" dy="0.95em" style="text-anchor: middle; visibility: inherit; font-family: &quot;Helvetica Neue&quot;, sans-serif; font-size: 12px; font-weight: 200;" fill="rgb(50, 49, 63)" stroke="none" stroke-width="1px">45</text><text x="1305.3425" y="0" dx="0em" dy="0.95em" style="text-anchor: middle; visibility: inherit; font-family: &quot;Helvetica Neue&quot;, sans-serif; font-size: 12px; font-weight: 200;" fill="rgb(50, 49, 63)" stroke="none" stroke-width="1px">50</text><text x="1424.01" y="0" dx="0em" dy="0.95em" style="text-anchor: middle; visibility: hidden; font-family: &quot;Helvetica Neue&quot;, sans-serif; font-size: 12px; font-weight: 200;" fill="rgb(50, 49, 63)" stroke="none" stroke-width="1px">55</text></g><line x1="0" y1="0" x2="1424.01" y2="0" fill="rgb(0, 0, 0)" stroke="rgb(204, 204, 204)" stroke-width="1px"></line></g></g></g></g></svg>